Simulation
nRows=30
nColumns=15
endheader
time  TH_x TH_y TH_z SC_y  SC_z  SC_x  AC_y  AC_z  AC_x  GH_y  GH_z  GH_yy  EL_x  PS_y
0.0  0.000000  0.000000  0.000000  -27.794142833928994  2.1884495003319944  4.910126582143531  41.234155434633514  5.050016552539155  -3.873036217054475  -27.335363202489845  -1.9500390650304582  74.42622491428646  20.595003872522266  120.000000
0.031799999999999995  0.000000  0.000000  0.000000  -26.914123498163494  3.1526744298229903  5.178500013215431  40.806816583001954  4.8440189527211235  -3.7257691462981537  -27.211987393504767  -2.1485370433663147  74.29531947149783  20.72243174617856  120.000000
0.06359999999999999  0.000000  0.000000  0.000000  -26.18380292562856  3.9222789349918865  5.44194931568916  40.435816739897305  4.547137972825933  -3.6910325529810106  -27.064286134375788  -2.3607841496855637  74.1710988036802  20.869264589861288  120.000000
0.09539999999999998  0.000000  0.000000  0.000000  -25.649173332827676  4.468621305103421  5.716646059596594  40.142248845051334  4.216876448989899  -3.771123717133887  -26.88730232909717  -2.5513615841496255  74.04234663071378  21.025585387817177  120.000000
0.12719999999999998  0.000000  0.000000  0.000000  -25.283950890475477  4.81616801554676  6.016370799794706  39.92302596622014  3.883258463295355  -3.957934910114386  -26.67429182901432  -2.709297435880957  73.89907652613282  21.174445532746144  120.000000
0.15899999999999997  0.000000  0.000000  0.000000  -25.044576948101387  5.015728916070422  6.344435365189084  39.766844371234484  3.561490501823618  -4.223036881137253  -26.424228975919938  -2.8344790307485646  73.72679498441816  21.29167635695311  120.000000
0.19079999999999997  0.000000  0.000000  0.000000  -24.888620462855517  5.115257900431502  6.697275933603715  39.66171447703026  3.258374668710156  -4.536195437111424  -26.14470356475229  -2.932614351931063  73.50478754949215  21.35981377665455  120.000000
0.22259999999999996  0.000000  0.000000  0.000000  -24.782378215596545  5.152743640763172  7.068703679406411  39.601278563231574  2.9718320286275963  -4.870386240874905  -25.846104887415216  -3.0103506594574214  73.21215683606805  21.367087657215233  120.000000
0.25439999999999996  0.000000  0.000000  0.000000  -24.703931674303767  5.153835920250174  7.45159081591969  39.58333406814129  2.6948836318803537  -5.203117312273704  -25.537723636514382  -3.0720358611573837  72.83155472384986  21.306896708599833  120.000000
0.28619999999999995  0.000000  0.000000  0.000000  -24.642303961780634  5.133015420409149  7.839897103054164  39.60986496992461  2.4188496774839896  -5.516470225274877  -25.226416180190622  -3.1197899082853042  72.35060755483126  21.173028185493845  120.000000
0.31799999999999995  0.000000  0.000000  0.000000  -24.59526250472022  5.098224750935068  8.230131736842353  39.683246696644545  2.1340706251981665  -5.796835678213837  -24.91581422202111  -3.1522251271824118  71.76239663436685  20.958140878619524  120.000000
0.34979999999999994  0.000000  0.000000  0.000000  -24.565584424133686  5.056273011077971  8.62074971355006  39.80134387395324  1.8303630777246518  -6.036045653862733  -24.607484503498657  -3.1627993165401636  71.06433166288765  20.654347539645027  120.000000
0.38159999999999994  0.000000  0.000000  0.000000  -24.557979306270546  5.0167067920705435  9.010270890396297  39.952904809096005  1.4967777189944207  -6.232818482862235  -24.302119993563654  -3.1356884109846552  70.25682520411594  20.255425281751464  120.000000
0.41339999999999993  0.000000  0.000000  0.000000  -24.578092579661458  4.994265533769818  9.396164828653566  40.114513530232244  1.1213144771930708  -6.393339602911875  -24.001696180491642  -3.043424122120506  69.34170483157712  19.759178368141562  120.000000
0.44519999999999993  0.000000  0.000000  0.000000  -24.63122676280274  5.00724020532639  9.774866086389165  40.258111032005026  0.6925373226913699  -6.529121100436967  -23.71228956490999  -2.846435660208299  68.32053917807924  19.170145765541655  120.000000
0.4769999999999999  0.000000  0.000000  0.000000  -24.71361169307127  5.074989090977386  10.14394286024556  40.355835155591336  0.2021973031908882  -6.652325168911515  -23.44294788583982  -2.494164904659547  67.19701277972815  18.51137969721572  120.000000
0.5087999999999999  0.000000  0.000000  0.000000  -24.81001973083412  5.215383029471617  10.510139956846528  40.401071544001695  -0.3502536464914885  -6.767088492737424  -23.208642661742342  -1.9364860690959467  65.97612858286742  17.825245081136263  120.000000
0.5406  0.000000  0.000000  0.000000  -24.909812022832682  5.421284769873457  10.892015813761967  40.42267162509736  -0.9402188255971359  -6.863256975102668  -23.031385828603245  -1.1381479057451476  64.66495017657155  17.163572967668607  120.000000
0.5723999999999999  0.000000  0.000000  0.000000  -25.02036359192243  5.642664885433596  11.305234098359898  40.49185554060244  -1.5165557017988078  -6.916143415148202  -22.94963364293229  -0.09996519200854595  63.2623983519397  16.5646367019768  120.000000
0.6041999999999998  0.000000  0.000000  0.000000  -25.177095039089345  5.820554434797256  11.771011433268152  40.687689465098615  -2.042547343110219  -6.916143419031128  -23.025856361426143  1.129752625121755  61.74940855794158  16.042999692812344  120.000000
0.6359999999999999  0.000000  0.000000  0.000000  -25.43666416467361  5.9270208635531265  12.315859404176024  41.03267176819648  -2.520375960195117  -6.879112322882372  -23.328498592892355  2.5095108486796587  60.10445116534944  15.6071374449301  120.000000
0.6678  0.000000  0.000000  0.000000  -25.828172390692963  5.96687741381674  12.932072533735779  41.50238379508105  -2.970575652053856  -6.807622260660404  -23.90416159846671  4.054138737975034  58.32713856632476  15.259782555563643  120.000000
0.6995999999999999  0.000000  0.000000  0.000000  -26.319430547112958  5.966695281000636  13.576554749665549  42.04919222618092  -3.4074528560122803  -6.69830391980042  -24.75673599540551  5.798869838671477  56.45144981145992  15.021265181307134  120.000000
0.7313999999999998  0.000000  0.000000  0.000000  -26.84525550515301  5.959377232753801  14.20414657790397  42.607161537837456  -3.8364664045622847  -6.565571829103274  -25.83834567149239  7.759777319817511  54.542647354425114  14.93290251303234  120.000000
0.7631999999999999  0.000000  0.000000  0.000000  -27.3571684055602  5.966946444890543  14.793502912840998  43.12559416722594  -4.2508803404454065  -6.430774993570183  -27.06935324501256  9.91108714968241  52.66435941015094  15.00746818248393  120.000000
0.7949999999999999  0.000000  0.000000  0.000000  -27.84900430484695  5.9974476195694875  15.357182341612601  43.59447411026691  -4.627123521606636  -6.306754391226064  -28.364350121231634  12.177946400678897  50.84471894885006  15.212813037264944  120.000000
0.8267999999999999  0.000000  0.000000  0.000000  -28.348103245652258  6.050958767226856  15.931435846485872  44.040586164349556  -4.930544120160413  -6.192067958019425  -29.640802647254624  14.45806611488481  49.07579825497598  15.486439398914175  120.000000
0.8585999999999998  0.000000  0.000000  0.000000  -28.887001409138122  6.125428606783965  16.554524076382805  44.50258841496678  -5.127949764481318  -6.075828281880604  -30.826576040500935  16.654086273196185  47.329758056612334  15.762019785802124  120.000000
0.8903999999999999  0.000000  0.000000  0.000000  -29.479158634412514  6.220836686908152  17.246633672746864  45.00549328647322  -5.200960035095295  -5.947042511929335  -31.865769080153505  18.699237441939196  45.58244305353364  15.995139328330644  120.000000
0.9221999999999999  0.000000  0.000000  0.000000  -30.109981897162488  6.340248582314607  18.000186036198468  45.54572868046328  -5.152205751944162  -5.801223578274893  -32.721845454596625  20.567074529827018  43.834228928901105  16.17214004253149  120.000000
